<mxfile host="65bd71144e">
    <diagram id="EutEiVMTAlEfY8xDxiTY" name="第 1 页">
        <mxGraphModel dx="547" dy="306" grid="1" gridSize="10" guides="1" tooltips="1" connect="1" arrows="1" fold="1" page="1" pageScale="1" pageWidth="827" pageHeight="1169" math="0" shadow="0">
            <root>
                <mxCell id="0"/>
                <mxCell id="1" parent="0"/>
                <mxCell id="14" style="edgeStyle=none;html=1;endArrow=none;endFill=0;" edge="1" parent="1" source="2" target="4">
                    <mxGeometry relative="1" as="geometry"/>
                </mxCell>
                <mxCell id="2" value="1" style="ellipse;whiteSpace=wrap;html=1;fontFamily=Times New Roman;fontSize=19;" vertex="1" parent="1">
                    <mxGeometry x="280" y="120" width="40" height="40" as="geometry"/>
                </mxCell>
                <mxCell id="15" style="edgeStyle=none;html=1;endArrow=none;endFill=0;" edge="1" parent="1" source="4" target="5">
                    <mxGeometry relative="1" as="geometry"/>
                </mxCell>
                <mxCell id="4" value="2" style="ellipse;whiteSpace=wrap;html=1;fontFamily=Times New Roman;fontSize=19;" vertex="1" parent="1">
                    <mxGeometry x="260" y="170" width="40" height="40" as="geometry"/>
                </mxCell>
                <mxCell id="16" style="edgeStyle=none;html=1;endArrow=none;endFill=0;" edge="1" parent="1" source="5" target="6">
                    <mxGeometry relative="1" as="geometry"/>
                </mxCell>
                <mxCell id="5" value="3" style="ellipse;whiteSpace=wrap;html=1;fontFamily=Times New Roman;fontSize=19;" vertex="1" parent="1">
                    <mxGeometry x="240" y="220" width="40" height="40" as="geometry"/>
                </mxCell>
                <mxCell id="6" value="4" style="ellipse;whiteSpace=wrap;html=1;fontFamily=Times New Roman;fontSize=19;" vertex="1" parent="1">
                    <mxGeometry x="220" y="270" width="40" height="40" as="geometry"/>
                </mxCell>
                <mxCell id="11" style="edgeStyle=none;html=1;endArrow=none;endFill=0;" edge="1" parent="1" source="7" target="9">
                    <mxGeometry relative="1" as="geometry"/>
                </mxCell>
                <mxCell id="12" style="edgeStyle=none;html=1;endArrow=none;endFill=0;" edge="1" parent="1" source="7" target="8">
                    <mxGeometry relative="1" as="geometry"/>
                </mxCell>
                <mxCell id="13" style="edgeStyle=none;html=1;endArrow=none;endFill=0;" edge="1" parent="1" source="7" target="10">
                    <mxGeometry relative="1" as="geometry"/>
                </mxCell>
                <mxCell id="7" value="5" style="ellipse;whiteSpace=wrap;html=1;fontFamily=Times New Roman;fontSize=19;" vertex="1" parent="1">
                    <mxGeometry x="360" y="120" width="40" height="40" as="geometry"/>
                </mxCell>
                <mxCell id="8" value="6" style="ellipse;whiteSpace=wrap;html=1;fontFamily=Times New Roman;fontSize=19;" vertex="1" parent="1">
                    <mxGeometry x="310" y="170" width="40" height="40" as="geometry"/>
                </mxCell>
                <mxCell id="9" value="7" style="ellipse;whiteSpace=wrap;html=1;fontFamily=Times New Roman;fontSize=19;" vertex="1" parent="1">
                    <mxGeometry x="360" y="170" width="40" height="40" as="geometry"/>
                </mxCell>
                <mxCell id="10" value="8" style="ellipse;whiteSpace=wrap;html=1;fontFamily=Times New Roman;fontSize=19;" vertex="1" parent="1">
                    <mxGeometry x="410" y="170" width="40" height="40" as="geometry"/>
                </mxCell>
            </root>
        </mxGraphModel>
    </diagram>
</mxfile>